<svg width="64" height="20" fill="none" xmlns="http://www.w3.org/2000/svg"><path d="m16.329 16.749.002.003c1.227 1.21 2.73 1.816 4.492 1.816 1.761 0 3.264-.606 4.491-1.816l.001-.002c1.227-1.226 1.841-2.73 1.841-4.492 0-1.763-.614-3.26-1.841-4.47-1.227-1.227-2.73-1.841-4.492-1.841-1.763 0-3.267.614-4.493 1.84-1.212 1.213-1.818 2.709-1.818 4.47 0 1.762.606 3.265 1.817 4.492Zm12.784 1.215v.285h3.515V1.017h-3.515v16.947Zm-8.29-2.842c-.81 0-1.474-.27-2.011-.805-.52-.534-.785-1.213-.785-2.06 0-.846.265-1.524.785-2.059.537-.536 1.2-.805 2.01-.805.812 0 1.476.27 2.013.807.535.535.806 1.213.806 2.058 0 .844-.271 1.523-.806 2.057-.537.537-1.201.807-2.012.807Z" stroke="#EE7C92" stroke-width=".571"/><path d="M14.539 18.249h.57l-.341-.456-6.011-8.044 5.78-7.59.35-.457h-4.345l-.086.11L5.49 8.207V1.702H1.77v16.547h3.72v-6.927l5.194 6.815.086.112h3.77ZM44.167 6.266h-.285v.906c-.891-.82-2.044-1.225-3.435-1.225-1.605 0-2.988.622-4.134 1.848-1.133 1.213-1.697 2.707-1.697 4.463 0 1.756.564 3.256 1.696 4.484l.002.003c1.147 1.21 2.53 1.823 4.133 1.823 1.391 0 2.544-.405 3.435-1.225v.906h3.515V6.266h-3.23Zm-1.117 3.886.005.005c.548.533.827 1.225.827 2.1 0 .876-.28 1.577-.83 2.127-.534.535-1.212.806-2.057.806-.844 0-1.522-.27-2.057-.805-.534-.549-.808-1.25-.808-2.127 0-.878.274-1.57.807-2.104l.003-.002c.535-.55 1.213-.827 2.055-.827.842 0 1.52.277 2.055.827Zm10.132 8.097h.286v-.899c.88.816 2.025 1.218 3.412 1.218 1.618 0 3.002-.613 4.134-1.825 1.148-1.227 1.72-2.728 1.72-4.485 0-1.757-.572-3.25-1.72-4.463-1.132-1.227-2.515-1.848-4.134-1.848-1.387 0-2.532.403-3.412 1.219V1.702h-3.515v16.547h3.229Zm5.205-8.097.005.005c.548.533.827 1.225.827 2.1 0 .876-.28 1.577-.829 2.127-.535.535-1.213.806-2.058.806-.844 0-1.522-.27-2.056-.805-.535-.549-.808-1.25-.808-2.127 0-.878.273-1.57.806-2.104l.003-.002c.535-.55 1.213-.827 2.055-.827.843 0 1.52.277 2.055.827Z" stroke="#76B1A6" stroke-width=".571"/><path d="M44.738 6.552h2.944v11.412h-2.944v-1.347c-.883 1.11-2.123 1.666-3.72 1.666-1.522 0-2.83-.578-3.926-1.735-1.08-1.171-1.62-2.601-1.62-4.29 0-1.69.54-3.112 1.62-4.269 1.096-1.171 2.404-1.757 3.926-1.757 1.597 0 2.837.555 3.72 1.666V6.552Zm-5.432 8.034c.593.593 1.347.89 2.26.89.912 0 1.666-.297 2.26-.89.608-.609.912-1.385.912-2.328 0-.944-.304-1.712-.913-2.306-.593-.608-1.347-.913-2.26-.913-.912 0-1.666.305-2.26.913-.593.594-.89 1.362-.89 2.306 0 .943.297 1.719.89 2.328ZM57.45 6.232c1.537 0 2.846.586 3.926 1.757 1.096 1.157 1.644 2.58 1.644 4.269s-.548 3.119-1.644 4.29c-1.08 1.157-2.389 1.735-3.925 1.735-1.598 0-2.83-.555-3.698-1.666v1.347h-2.944V1.987h2.944v5.911c.867-1.11 2.1-1.666 3.697-1.666Zm-2.807 8.354c.593.593 1.347.89 2.26.89.913 0 1.666-.297 2.26-.89.608-.609.912-1.385.912-2.328 0-.944-.304-1.712-.913-2.306-.593-.608-1.346-.913-2.26-.913-.912 0-1.666.305-2.259.913-.593.594-.89 1.362-.89 2.306 0 .943.297 1.719.89 2.328ZM11.48 17.964l-5.706-7.487v7.487h-3.15V1.987h3.15v7.052l5.478-7.052h3.683L9.03 9.039l1.042 1.438 5.558 7.487h-4.15Z" fill="#76B1A6"/><path d="M25.684 16.549c-1.172 1.156-2.602 1.734-4.29 1.734-1.69 0-3.12-.578-4.292-1.735-1.156-1.171-1.734-2.601-1.734-4.29 0-1.69.578-3.112 1.734-4.268 1.172-1.172 2.602-1.758 4.291-1.758 1.69 0 3.12.586 4.291 1.758 1.172 1.156 1.758 2.579 1.758 4.268 0 1.689-.586 3.119-1.758 4.29Zm-6.505-2.032c.594.594 1.332.89 2.214.89.883 0 1.62-.296 2.214-.89.594-.593.89-1.346.89-2.26 0-.912-.296-1.665-.89-2.259-.593-.593-1.331-.89-2.214-.89-.882 0-1.62.297-2.214.89-.578.594-.867 1.347-.867 2.26 0 .913.29 1.666.867 2.26Zm10.791 3.447V1.302h2.944v16.662h-2.945Z" fill="#EE7C92"/></svg>