                <svg width="427" height="419" viewBox="0 0 427 419" fill="none" xmlns="http://www.w3.org/2000/svg">
                    <path d="M145.384 219.715C145.384 98.6047 243.564 0.424988 364.674 0.424988C371.316 0.424988 376.7 5.80903 376.7 12.4506V394.982C376.7 408.026 366.126 418.6 353.082 418.6H167.124C155.117 418.6 145.384 408.867 145.384 396.86V219.715Z" fill="#EEF9FE"/>
                    <g clip-path="url(#clip0_103_3)">
                    <path d="M205.838 271.112L207.377 288.768L212.366 346.201L215.63 383.808L224.463 479.877L255.515 482.699L270.352 320.158C270.352 320.158 275.59 239.672 247.378 237.451C219.155 235.23 206.148 246.136 205.838 271.112Z" fill="#5A9687"/>
                    <path d="M196.89 275.664C199.193 279.335 202.161 281.072 202.914 285.521C203.714 290.239 203.175 295.234 203.448 300.008C204.228 313.64 204.945 327.275 205.755 340.905C207.354 367.834 208.653 395.566 213.582 422.125C213.896 423.815 211.343 424.556 210.977 422.843C208.538 411.427 207.835 399.688 206.757 388.085C205.511 374.674 204.462 361.252 203.694 347.805C202.956 334.885 202.357 321.957 201.715 309.032C201.434 303.366 201.059 297.707 201.124 292.034C201.153 289.557 201.379 286.701 200.604 284.316C199.629 281.312 196.833 279.281 195.212 276.645C194.555 275.576 196.227 274.607 196.89 275.664Z" fill="white"/>
                    <path d="M203.448 418.537C206.367 425.661 209.196 434.115 209.709 441.845C210.31 450.883 210.143 459.888 211.399 468.899C211.6 470.334 209.398 470.949 209.203 469.504C208.115 461.46 206.477 453.445 206.437 445.305C206.393 436.248 203.442 427.661 202.768 418.629C202.737 418.206 203.313 418.207 203.448 418.537Z" fill="white"/>
                    <path d="M254.617 294.062C254.617 294.062 247.286 293.744 245.366 291.46C245.366 291.46 239.257 265.273 239.606 252.71" fill="#473C6B"/>
                    <path d="M254.617 294.062C254.617 294.062 247.286 293.744 245.366 291.46C245.366 291.46 239.257 265.273 239.606 252.71" stroke="#473C6B" stroke-width="1.16544" stroke-miterlimit="10" stroke-linecap="round" stroke-linejoin="round"/>
                    <path d="M244.573 259.623L252.293 292.763L255.458 303.012L296.378 435.708L320.846 483.103C320.846 483.103 347.058 484.194 347.058 483.103C347.058 481.998 320.618 271.646 320.618 271.646C320.618 271.646 316.758 237.364 283.049 233.531C249.339 229.697 244.573 259.623 244.573 259.623Z" fill="#80BDAE"/>
                    <path d="M332.838 298.455C333.439 307.789 336.206 317.262 337.798 326.484C339.419 335.877 340.981 345.282 342.402 354.707C342.66 356.417 340.089 357.196 339.753 355.437C337.828 345.341 336.033 335.212 334.37 325.069C332.933 316.303 330.916 307.379 331.654 298.455C331.717 297.699 332.789 297.689 332.838 298.455Z" fill="white"/>
                    <path d="M343.452 369.924C343.445 372.672 343.799 375.386 344.371 378.071C344.836 380.251 345.592 382.341 345.675 384.583C345.7 385.254 344.761 385.677 344.303 385.151C340.849 381.186 340.984 374.849 341.487 369.924C341.613 368.693 343.456 368.633 343.452 369.924Z" fill="#FEFAFA"/>
                    <path d="M349.971 397.704C352.252 409.852 352.501 422.46 354.379 434.704C356.277 447.076 358.74 459.262 361.57 471.446C361.795 472.414 360.394 472.797 360.084 471.855C356.098 459.717 352.992 447.121 351.006 434.501C349.145 422.678 346.981 409.913 348.172 397.947C348.266 397.005 349.765 396.607 349.971 397.704Z" fill="#FEFAFA"/>
                    <path d="M137.837 154.295C137.468 153.998 133.399 154.009 133.399 154.009C133.399 154.009 116.525 148.605 112.35 145.86C108.174 143.114 111.2 140.145 115.018 141.535C118.836 142.925 129.327 142.023 129.327 142.023L134.878 148.431L137.837 154.295Z" fill="#EFA097"/>
                    <path d="M128.333 132.077C128.333 132.077 114.955 128.426 113.288 125.79C111.621 123.153 113.216 120.787 117.025 121.719C120.834 122.65 130.9 124.714 130.9 124.714L128.333 132.077Z" fill="#EFA097"/>
                    <path d="M129.786 122.838C129.786 122.838 116.407 119.188 114.741 116.551C113.074 113.915 114.669 111.549 118.477 112.481C122.286 113.412 132.352 115.476 132.352 115.476L129.786 122.838Z" fill="#EFA097"/>
                    <path d="M129.966 114.936C129.966 114.936 117.616 108.628 116.523 105.706C115.43 102.784 117.475 100.794 121.013 102.485C124.551 104.175 132.286 109.252 132.286 109.252L129.966 114.936Z" fill="#EFA097"/>
                    <path d="M121.515 98.8245C123.469 100.123 127.975 103.941 131.172 106.943C132.945 108.609 134.315 110.022 134.615 110.633C135.464 112.34 143.385 137.657 143.385 137.657L166.36 158.902L148.252 169.85C148.252 169.85 138.957 171.029 138.437 170.612C137.918 170.196 134.615 162.624 134.615 162.624C134.615 162.624 132.508 157.68 128.988 155.701C125.456 153.718 122.405 148.805 122.263 146.641C122.122 144.477 124.68 112.905 124.184 110.969C123.688 109.033 116.456 102.442 116.406 99.8536C116.346 97.2504 118.488 96.7989 121.515 98.8245Z" fill="#F5C3C0"/>
                    <path d="M130.902 106.554C132.674 108.22 134.044 109.633 134.344 110.244C135.193 111.951 143.114 137.268 143.114 137.268L167.101 159.624L154.297 166.34C152.651 161.857 144.351 147.58 140.038 144.984C133.732 141.209 134.409 136.2 133.237 123.122C132.61 116.155 131.912 110.632 130.902 106.554Z" fill="#EFA097"/>
                    <path d="M134.658 171.123C134.658 171.123 146.859 206.62 161.938 228.246C167.97 236.906 174.461 243.333 180.829 244.4C187.394 245.492 192.619 244.301 196.926 241.596C207.265 235.12 212.428 219.983 218.46 206.62C218.559 206.397 218.658 206.161 218.758 205.913C218.832 205.714 218.907 205.516 218.981 205.317C224.244 190.292 215.183 152.772 210.008 133.95C208.146 127.176 206.793 122.821 206.793 122.821C206.793 122.821 198.329 125.613 196.926 128.925C195.524 132.238 186.985 185.788 186.985 185.788L170.651 150.526C170.651 150.526 160.226 155.638 149.986 161.433C144.178 164.708 138.431 168.219 134.658 171.123Z" fill="#EE9087"/>
                    <path d="M196.308 121.849C194.929 123.076 193.583 125.131 192.64 126.724C191.838 128.081 191.476 130.357 190.11 131.189C189.748 131.41 189.235 131.272 189.026 130.905C188.085 129.251 189.696 126.627 190.642 125.248C192.077 123.157 193.579 122.281 195.767 121.148C196.197 120.925 196.705 121.496 196.308 121.849Z" fill="white"/>
                    <path d="M188.538 138.07C187.158 148.316 187.423 158.795 185.897 168.967C185.755 169.916 184.124 169.916 183.98 168.967C182.454 158.866 184.848 147.524 187.526 137.791C187.711 137.119 188.626 137.423 188.538 138.07Z" fill="white"/>
                    <path d="M136.36 187.877C140.295 196.251 144.369 204.621 148.728 212.785C153.109 220.991 158.591 228.564 162.974 236.733C163.587 237.874 162.014 239.258 161.098 238.181C155.106 231.128 150.532 222.395 146.186 214.27C141.712 205.906 138.033 197.427 134.992 188.453C134.724 187.661 135.997 187.105 136.36 187.877Z" fill="white"/>
                    <path d="M168.258 243.958C171.169 247.456 175.145 249.359 178.748 251.974C179.735 252.69 179.19 254.386 177.879 254.034C173.12 252.758 169.845 248.643 167.276 244.715C166.893 244.13 167.8 243.408 168.258 243.958Z" fill="white"/>
                    <path d="M134.658 171.122C134.658 171.122 146.859 206.62 161.938 228.245C167.97 236.906 174.461 243.333 180.829 244.4C187.394 245.492 192.619 244.301 196.926 241.596C207.265 235.119 212.428 219.982 218.46 206.62C218.559 206.396 218.658 206.16 218.758 205.912C218.832 205.714 218.907 205.515 218.981 205.317C224.244 190.292 215.183 152.772 210.008 133.95C205.602 146.655 199.011 167.164 198.105 178.666C196.727 196.16 189.305 211.434 186.103 205.069C182.901 198.704 179.19 201.495 175.479 205.069C171.979 208.419 156.254 179.72 149.986 161.432C144.178 164.708 138.431 168.219 134.658 171.122Z" fill="#F08175"/>
                    <path d="M168.937 159.867C168.937 159.867 149.943 168.376 142.497 173.085L168.937 159.867Z" fill="white"/>
                    <path d="M168.937 159.867C168.937 159.867 149.943 168.376 142.497 173.085" stroke="white" stroke-width="1.16544" stroke-miterlimit="10" stroke-linecap="round" stroke-linejoin="round"/>
                    <path d="M146.334 181.209C144.928 181.209 143.789 180.07 143.789 178.664C143.789 177.259 144.928 176.12 146.334 176.12C147.74 176.12 148.879 177.259 148.879 178.664C148.879 180.07 147.74 181.209 146.334 181.209Z" fill="white" stroke="white" stroke-width="1.16544" stroke-miterlimit="10" stroke-linecap="round" stroke-linejoin="round"/>
                    <path d="M151.424 190.842C150.019 190.842 148.879 189.703 148.879 188.298C148.879 186.893 150.019 185.754 151.424 185.754C152.83 185.754 153.97 186.893 153.97 188.298C153.97 189.703 152.83 190.842 151.424 190.842Z" fill="white" stroke="white" stroke-width="1.16544" stroke-miterlimit="10" stroke-linecap="round" stroke-linejoin="round"/>
                    <path d="M246.107 125.061L265.118 125.424L269.141 90.8101L269.725 85.842L250.255 86.4585L247.858 108.724L246.107 125.061Z" fill="#F5C3C0"/>
                    <path d="M247.496 108.758C258.261 105.144 265.233 96.9367 269.132 90.8174L269.725 85.842L249.933 86.4594L247.496 108.758Z" fill="#CF8E87"/>
                    <path d="M241.244 100.425C243.221 101.672 247.844 101.814 251.664 100.425C258.608 100.734 266.714 94.7197 272.381 88.6866C274.509 86.4435 276.057 83.9296 277.198 81.3772C280.699 73.8357 280.602 66.2362 280.602 66.2362C281.202 61.7499 281.241 57.6698 280.506 54.0924C279.577 49.587 277.411 45.9515 273.619 43.4957C271.376 42.0648 268.571 41.0398 265.128 40.4985C249.692 38.1007 220.752 38.2257 225.962 59.8014C231.172 81.3772 228.046 92.0917 241.244 100.425Z" fill="#F5C3C0"/>
                    <path d="M293.015 85.7343C297.228 69.5088 302.836 53.5315 297.119 36.8262C293.996 27.7005 288.977 22.1424 279.693 19.2851C268.026 15.6944 253.106 14.4314 244.733 25.6086C243.128 27.7511 240.12 25.4876 241.798 23.3445C253.31 8.63366 282.163 8.84984 295.064 22.105C311.309 38.7955 304.016 68.6636 296.056 87.0162C295.29 88.7834 292.555 87.504 293.015 85.7343Z" fill="white"/>
                    <path d="M231.771 32.6282C227.394 37.9943 224.685 46.1753 223.046 52.7922C221.607 58.6029 222.26 65.2849 219.321 70.5232C218.613 71.7837 216.918 71.3438 216.466 70.1503C214.066 63.7976 216.858 54.042 219.016 47.8629C221.55 40.6074 225.246 36.6562 230.975 31.832C231.534 31.3607 232.229 32.0671 231.771 32.6282Z" fill="white"/>
                    <path d="M248.191 101.119C258.611 101.814 266.714 94.7195 272.381 88.6863C274.509 86.4432 276.057 83.9293 277.198 81.3769C280.699 73.8354 280.602 66.2359 280.602 66.2359C281.202 61.7497 281.241 57.6696 280.506 54.0922C279.577 49.5867 277.411 45.9513 273.619 43.4954C273.407 43.7081 273.233 43.9595 273.116 44.2496C271.492 48.2716 267.797 51.9845 267.797 51.9845C267.797 51.9845 262.544 88.5692 248.191 101.119Z" fill="#EFA097"/>
                    <path d="M271.253 75.7358L270.892 81.1556L277.205 81.3801C280.695 73.8276 280.599 66.2277 280.599 66.2277C281.208 61.7486 281.25 57.6644 280.51 54.0971C276.42 53.557 269.538 60.7564 269.538 60.7564L268.51 73.2587L271.253 75.7358Z" fill="#3B3736"/>
                    <path d="M274.203 75.2435C274.203 75.2435 279.017 68.1767 284.627 71.9244C290.236 75.6722 284.38 95.4815 269.699 86.8363L274.203 75.2435Z" fill="#F5C3C0"/>
                    <path d="M287.681 58.2322C286.255 61.1825 282.06 68.2528 280.145 70.9121L268.336 73.3425L269.378 62.2319C269.378 62.2319 263.834 62.9334 261.931 58.9822C261.884 58.8923 261.842 58.7995 261.806 58.7044C261.271 57.4058 259.083 51.5658 258.541 42.0384C258.541 42.0384 244.843 50.8089 236.966 52.8921C234.131 53.6421 230.603 53.0588 227.241 51.9963C220.496 49.8714 213.438 40.5107 213.459 33.4416C213.459 33.3953 213.459 33.349 213.459 33.3027C213.612 22.8864 219.968 29.1362 219.968 29.1362C219.968 29.1362 220.211 20.7615 225.226 19.4144C230.241 18.0672 234.659 25.06 234.659 25.06C244.103 21.2587 254.176 19.2636 264.355 19.1783C284.549 19.1296 281.721 33.4763 281.721 33.4763C281.721 33.4763 296.962 35.8581 287.681 58.2322Z" fill="#5B1C10"/>
                    <path d="M280.145 70.9121L268.336 73.3425L271.114 75.773L270.767 81.3283H271.809L274.24 75.0786C276.356 72.6399 278.061 71.6065 280.145 70.9121Z" fill="#5B1C10"/>
                    <path d="M198.105 270.468C198.105 270.468 215.308 282.404 234.198 289.116L242.935 263.929L260.125 291.461C275.478 289.352 302.398 284.252 325.012 272.639L310.428 210.292L311.868 179.659L314.313 127.784C314.313 127.784 288.758 117.101 261.292 113.999C261.292 113.999 225.87 116.158 206.793 122.821C206.793 122.821 202.76 178.344 209.896 217.737L204.485 241.919L198.105 270.468Z" fill="#EE9087"/>
                    <path d="M297.451 117.882C293.261 117.713 288.715 116.357 284.829 114.841C283.089 114.163 283.737 111.444 285.618 111.978C289.621 113.115 293.882 114.097 297.763 115.579C298.916 116.02 298.869 117.939 297.451 117.882Z" fill="white"/>
                    <path d="M241.096 109.448C227.909 112.494 215.013 114.947 202.093 119.164C201.214 119.451 200.609 118.068 201.457 117.654C213.339 111.844 227.631 107.706 240.941 108.307C241.57 108.336 241.76 109.294 241.096 109.448Z" fill="white"/>
                    <path d="M278.286 112.352C277.019 112.291 275.806 112.183 274.642 111.654C273.485 111.128 272.392 110.393 271.609 109.385C270.992 108.59 270.834 107.521 271.609 106.746C272.284 106.071 273.585 105.982 274.249 106.746C275.442 108.121 276.821 109.639 278.565 110.296C279.596 110.684 279.55 112.413 278.286 112.352Z" fill="white"/>
                    <path d="M198.01 254.076C196.409 257.298 195.253 260.516 194.753 264.082C194.447 266.269 194.487 268.377 192.62 269.771C192.032 270.209 191.343 269.598 191.292 269.009C191.177 267.672 191.64 266.562 191.895 265.254C192.189 263.748 192.313 262.198 192.814 260.739C193.725 258.088 195.486 255.802 197.046 253.512C197.451 252.918 198.331 253.429 198.01 254.076Z" fill="white"/>
                    <path d="M198.105 270.468C198.105 270.468 215.308 282.404 234.198 289.116L242.389 265.492L242.935 263.929L243.754 265.232L260.125 291.461C275.478 289.352 302.398 284.252 325.012 272.639L323.746 267.217L317.503 240.529L310.428 210.292L311.868 179.659C298.7 198.195 276.533 215.044 267.634 218.345C255.334 222.898 232.547 217.811 221.066 215.206C209.586 212.6 230.176 222.749 241.731 228.593C247.614 231.571 245.79 237.874 236.841 241.385C230.065 244.053 219.192 245.12 204.485 241.919L202.089 252.626L198.105 270.468Z" fill="#F08175"/>
                    <path d="M202.09 252.626C207.861 257.341 222.68 269.016 227.074 268.272C229.457 267.862 235.873 266.696 242.389 265.493L242.935 263.929L243.755 265.232C251.797 263.743 259.554 262.291 259.554 262.291L262.396 274.252C262.396 274.252 302.808 270.182 323.746 267.217L317.503 240.529L236.841 241.385C230.065 244.053 219.192 245.12 204.485 241.919L202.09 252.626Z" fill="#D36265"/>
                    <path d="M244.571 205.072C244.571 205.072 242.741 243.63 242.945 258.821L244.571 205.072Z" fill="white"/>
                    <path d="M244.571 205.072C244.571 205.072 242.741 243.63 242.945 258.821" stroke="white" stroke-width="1.16544" stroke-miterlimit="10" stroke-linecap="round" stroke-linejoin="round"/>
                    <path d="M253.306 221.481C251.572 221.481 250.166 220.075 250.166 218.342C250.166 216.608 251.572 215.203 253.306 215.203C255.04 215.203 256.446 216.608 256.446 218.342C256.446 220.075 255.04 221.481 253.306 221.481Z" fill="white"/>
                    <path d="M252.298 246.695C250.564 246.695 249.158 245.29 249.158 243.556C249.158 241.822 250.564 240.417 252.298 240.417C254.032 240.417 255.438 241.822 255.438 243.556C255.438 245.29 254.032 246.695 252.298 246.695Z" fill="#1B2D3D"/>
                    <path d="M230.4 163.405C226.714 170.939 224.558 182.747 224.558 182.747L244.847 198.518L271.944 188.504C273.52 180.982 272.958 164.91 272.958 164.91L284.96 163.231C290.731 138.899 284.476 120.474 284.476 120.474C281.15 119.467 277.898 118.685 274.733 118.093C261.925 115.652 250.717 116.209 243.146 117.228C236.717 118.105 232.895 119.301 232.895 119.301C227.371 128.873 222.189 159.355 222.189 159.355L230.4 163.405Z" fill="#D36265"/>
                    <path d="M230.4 161.743C226.714 169.634 225.398 179.088 225.398 179.088L244.847 198.518L272.959 184.597C274.535 176.718 272.959 163.318 272.959 163.318L284.787 160.7C290.558 135.216 284.476 116.778 284.476 116.778C281.15 115.724 277.898 114.905 274.733 114.285C261.925 111.729 250.717 112.312 243.146 113.379C236.717 114.297 232.895 115.55 232.895 115.55C227.372 125.575 222.506 156.259 222.506 156.259L230.4 161.743Z" fill="white"/>
                    <path d="M245.628 196.421C262.148 169.398 272.946 122.449 274.733 114.285C261.925 111.729 250.717 112.312 243.146 113.379C238.864 156.68 245.628 196.421 245.628 196.421Z" fill="#F19B51"/>
                    <path d="M256.446 124.874C256.446 124.874 247.959 163.391 246.174 186.979" stroke="white" stroke-width="1.16544" stroke-miterlimit="10" stroke-linecap="round" stroke-linejoin="round"/>
                    <path d="M267.583 108.173C263.725 106.709 251.789 105.704 246.604 108.173C246.604 108.173 244.881 112.209 244.718 114.809C244.718 114.809 246.363 117.043 253.477 118.232C260.59 119.421 269.03 115.946 269.03 115.946L267.583 108.173Z" fill="#F19B51"/>
                    <path d="M244.03 117.531C244.069 118.701 244.275 119.64 244.648 119.974C245.921 121.067 252.919 119.28 252.919 119.28C252.919 119.28 254.412 117.325 253.614 114.792C253.614 114.792 253.408 114.611 253.048 114.316C251.569 113.12 247.581 110.033 246.05 110.445C244.712 110.818 243.94 114.792 244.03 117.531Z" fill="#DF6561"/>
                    <path d="M244.03 117.531C244.069 118.701 244.275 119.64 244.648 119.974C245.921 121.067 252.92 119.28 252.92 119.28C252.92 119.28 254.412 117.325 253.614 114.792C253.614 114.792 253.408 114.612 253.048 114.316C251.376 115.062 250.745 116.348 250.179 117.556C249.639 118.701 245.291 119.37 244.03 117.531Z" fill="#BE5552"/>
                    <path d="M252.005 118.457C252.289 120.579 253.626 121.415 255.543 121.582C257.987 121.801 260.187 121.376 260.702 117.737C260.985 115.757 260.856 114.368 260.2 113.493C259.647 112.747 258.733 112.362 257.396 112.271C254.823 112.091 252.43 112.786 252.018 116.438C251.928 117.21 251.928 117.878 252.005 118.457Z" fill="#DF6561"/>
                    <path d="M252.006 118.457C252.289 120.578 253.627 121.414 255.544 121.582C257.988 121.8 260.188 121.376 260.703 117.736C260.986 115.756 260.857 114.367 260.201 113.493C260.059 115.563 259.352 119.537 256.02 119.575C253.872 119.588 252.675 119.035 252.006 118.457Z" fill="#BE5552"/>
                    <path d="M259.8 115.235C259.8 115.235 266.555 112.071 268.251 113.083C269.948 114.095 268.564 121.915 267.039 122.629C265.514 123.344 259.255 119.741 259.255 119.741C259.255 119.741 258.344 117.458 259.8 115.235Z" fill="#DF6561"/>
                    <path d="M199.098 229.623C199.892 233.407 201.133 240.28 202.511 244.251C203.008 245.715 203.529 246.782 204.038 247.154C205.962 248.531 220.421 257.713 225.001 259.623C229.58 261.534 266.827 256.125 266.827 256.125L264.543 244.077L263.19 236.968C263.19 236.968 235.24 222.761 231.74 221.794C228.252 220.826 227.408 222.588 228.376 225.268C229.332 227.935 238.008 235.144 238.008 235.144C238.008 235.144 219.341 233.258 216.573 231.918C213.793 230.59 204.398 220.466 200.55 219.511C196.69 218.543 198.018 224.449 199.098 229.623Z" fill="#F5C3C0"/>
                    <path d="M202.511 244.251C203.008 245.715 203.529 246.782 204.038 247.154C205.962 248.531 220.421 257.713 225.001 259.623C229.58 261.534 266.827 256.125 266.827 256.125L264.543 244.077C253.882 247.142 233.602 250.864 225.994 251.149C219.564 251.397 208.978 247.166 202.511 244.251Z" fill="#EFA097"/>
                    <path d="M205.01 233.149C205.01 233.149 210.802 237.728 211.63 238.452C212.457 239.176 221.248 241.761 221.248 241.761" stroke="#1B2D3D" stroke-width="1.16544" stroke-miterlimit="10" stroke-linecap="round" stroke-linejoin="round"/>
                    <path d="M205.838 240.416C205.838 240.416 217.111 247.55 218.456 248.378" stroke="#1B2D3D" stroke-width="1.16544" stroke-miterlimit="10" stroke-linecap="round" stroke-linejoin="round"/>
                    <path d="M261.565 233.06C261.565 233.06 262.148 241.621 263.315 251.001C263.985 256.361 264.854 261.981 265.921 266.41C265.921 266.41 292.966 264.537 310.974 262.18C317.279 261.361 322.48 260.48 325.012 259.586C334.804 256.187 337.969 249.611 338.217 244.995C338.23 244.685 338.23 243.928 338.205 242.787C338.155 240.727 338.044 237.452 337.845 233.27C336.592 205.652 332.26 138.962 325.012 132.064C325.012 132.064 318.508 129.421 314.313 127.783C314.313 127.783 298.054 141.68 294.889 155.489C294.889 155.489 291.749 199.684 296.366 218.183L297.322 221.632L261.565 233.06Z" fill="#EE9087"/>
                    <path d="M338.083 158.035C338.043 152.65 335.705 146.897 334.363 141.681C333.156 136.994 332.435 131.805 328.57 128.502C321.918 122.818 311.093 122.363 303.209 118.98C301.991 118.457 302.926 116.784 304.052 116.98C310.345 118.077 316.772 120.117 322.815 122.195C326.631 123.507 330.448 125.278 332.906 128.611C335.674 132.367 336.413 137.475 337.547 141.878C339.035 147.66 340.12 152.261 339.246 158.192C339.146 158.866 338.088 158.683 338.083 158.035Z" fill="white"/>
                    <path d="M340.337 173.551C343.21 191.876 345.62 210.316 347.119 228.819C348.266 242.991 346.188 257.521 332.448 264.996C331.714 265.396 331.016 264.469 331.569 263.857C334.204 260.938 337.478 258.803 339.908 255.657C342.803 251.91 344.301 247.509 344.826 242.822C345.579 236.103 344.475 229.29 343.712 222.626C341.847 206.333 340.423 190.028 339.503 173.664C339.477 173.194 340.262 173.074 340.337 173.551Z" fill="white"/>
                    <path d="M349.797 256.937C345.225 265.502 338.001 272.927 329.099 277.031C327.6 277.722 326.29 275.618 327.781 274.776C336.153 270.047 343.153 264.241 348.64 256.26C349.125 255.555 350.208 256.167 349.797 256.937Z" fill="white"/>
                    <path d="M294.889 155.489C294.889 155.489 294.042 167.411 293.875 181.463L294.889 155.489Z" fill="#D36265"/>
                    <path d="M306.805 135.293C302.091 140.596 296.593 148.055 294.889 155.489C294.889 155.489 294.44 141.764 299.143 134.359" fill="#D36265"/>
                    <path d="M263.315 251.001C263.985 256.361 264.854 261.981 265.921 266.41C265.921 266.41 292.965 264.537 310.974 262.18C317.279 261.361 322.48 260.48 325.012 259.586C334.804 256.187 337.969 249.611 338.217 244.995C338.23 244.685 338.23 243.928 338.205 242.787C320.159 248.928 283.111 250.566 263.315 251.001Z" fill="#F08175"/>
                    <path d="M266.831 234.677C266.831 234.677 268.005 251.013 270.354 259.621L266.831 234.677Z" fill="white"/>
                    <path d="M266.831 234.677C266.831 234.677 268.005 251.013 270.354 259.621" stroke="white" stroke-width="1.16544" stroke-miterlimit="10" stroke-linecap="round" stroke-linejoin="round"/>
                    <path d="M288.743 258.821C287.253 258.821 286.045 257.613 286.045 256.124C286.045 254.635 287.253 253.428 288.743 253.428C290.232 253.428 291.44 254.635 291.44 256.124C291.44 257.613 290.232 258.821 288.743 258.821Z" fill="white"/>
                    <path d="M280.351 259.621C278.861 259.621 277.654 258.414 277.654 256.924C277.654 255.435 278.861 254.228 280.351 254.228C281.841 254.228 283.048 255.435 283.048 256.924C283.048 258.414 281.841 259.621 280.351 259.621Z" fill="white"/>
                    <path d="M244.06 80.8722C243.994 80.8908 243.923 80.9033 243.851 80.9072C243.66 80.9197 239.166 81.1587 237.423 77.4977C237.237 77.1058 237.321 76.6385 237.633 76.3372C240.372 73.6988 242.081 67.4601 242.099 67.3971C242.243 66.8554 242.802 66.5405 243.336 66.6866C243.873 66.8325 244.192 67.3856 244.046 67.9235C243.976 68.1845 242.382 73.9951 239.588 77.2033C240.945 79.0251 243.699 78.8962 243.729 78.8939C244.283 78.8635 244.76 79.2874 244.792 79.8418C244.821 80.3237 244.508 80.7468 244.06 80.8722Z" fill="#5B1C10"/>
                    <path d="M249.379 88.5873C243.775 90.1568 239.607 88.8459 239.396 88.7773C238.867 88.6053 238.579 88.0385 238.75 87.5089L253.607 85.7967C253.852 86.2978 253.644 86.902 253.144 87.1463C251.84 87.7846 250.578 88.2516 249.379 88.5873Z" fill="#5B1C10"/>
                    <path d="M247.863 57.4943C247.863 57.4943 248.111 53.423 249.104 52.6486C250.097 51.8742 250.241 53.8149 250.241 53.8149C250.241 53.8149 258.271 52.1167 259.322 60.1943C259.322 60.1943 255.713 55.7995 247.863 57.4943Z" fill="#5B1C10"/>
                    <path d="M238.92 58.1889C238.92 58.1889 238.672 54.1176 237.679 53.3433C236.686 52.5689 236.542 54.5095 236.542 54.5095C236.542 54.5095 228.512 52.8114 227.461 60.8889C227.461 60.8889 231.07 56.4941 238.92 58.1889Z" fill="#5B1C10"/>
                    <path d="M250.507 69.6131C248.783 69.6028 247.396 67.8543 247.409 65.7077C247.422 63.5611 248.83 61.8292 250.554 61.8395C252.277 61.8498 253.664 63.5984 253.652 65.745C253.639 67.8916 252.231 69.6234 250.507 69.6131Z" fill="#5B1C10"/>
                    <path d="M249.46 65.8846C248.889 66.0447 248.295 65.7111 248.135 65.1395C247.975 64.5679 248.309 63.9748 248.88 63.8147C249.452 63.6547 250.045 63.9883 250.205 64.5599C250.365 65.1314 250.032 65.7246 249.46 65.8846Z" fill="white"/>
                    <path d="M234.083 68.8941C232.359 68.8838 230.972 67.1352 230.985 64.9886C230.998 62.842 232.405 61.1101 234.129 61.1204C235.853 61.1307 237.24 62.8793 237.227 65.0259C237.214 67.1725 235.807 68.9044 234.083 68.8941Z" fill="#5B1C10"/>
                    <path d="M233.036 65.1655C232.464 65.3255 231.871 64.9919 231.711 64.4203C231.551 63.8487 231.885 63.2556 232.456 63.0955C233.028 62.9355 233.621 63.2691 233.781 63.8407C233.941 64.4123 233.608 65.0054 233.036 65.1655Z" fill="white"/>
                    </g>
                    <g filter="url(#filter0_bi_103_3)">
                    <rect x="0.898193" y="96.9804" width="118.089" height="147.959" rx="6.90946" fill="white" fill-opacity="0.1"/>
                    <rect x="0.898193" y="96.9804" width="118.089" height="147.959" rx="6.90946" fill="url(#paint0_linear_103_3)" fill-opacity="0.08"/>
                    <rect x="1.83865" y="97.9208" width="116.208" height="146.078" rx="5.969" stroke="url(#paint1_linear_103_3)" stroke-opacity="0.1" stroke-width="1.88091"/>
                    </g>
                    <g filter="url(#filter1_bi_103_3)">
                    <rect width="120.173" height="147.959" rx="6.90946" transform="matrix(-1 0 0 1 130.796 104.621)" fill="white"/>
                    <rect width="120.173" height="147.959" rx="6.90946" transform="matrix(-1 0 0 1 130.796 104.621)" fill="url(#paint2_linear_103_3)" fill-opacity="0.08"/>
                    <rect x="-0.940454" y="0.940454" width="118.292" height="146.078" rx="5.969" transform="matrix(-1 0 0 1 128.915 104.621)" stroke="url(#paint3_linear_103_3)" stroke-opacity="0.1" stroke-width="1.88091"/>
                    </g>
                    <circle cx="46.2275" cy="147.172" r="20.3223" fill="#83B7AD"/>
                    <path d="M51.1798 147.393C50.4501 148.003 48.2898 150.095 47.9824 153.671C47.9688 153.829 47.8336 153.949 47.6749 153.949H44.6953C44.5365 153.949 44.4013 153.829 44.3877 153.671C44.0793 150.095 41.9196 148.003 41.1902 147.393C41.0618 147.285 41.0438 147.094 41.1495 146.965C42.8804 144.838 44.7162 141.33 45.6172 139.512C45.6572 139.431 45.7783 139.461 45.7783 139.551V147.222C45.5589 147.358 45.413 147.599 45.413 147.877C45.413 148.357 45.85 148.734 46.3466 148.633C46.6387 148.573 46.8757 148.339 46.9387 148.047C47.013 147.703 46.8556 147.385 46.5918 147.222V139.553C46.5918 139.463 46.7129 139.434 46.7529 139.515C47.6547 141.333 49.4896 144.839 51.2205 146.965C51.3262 147.094 51.3083 147.285 51.1798 147.393Z" fill="white"/>
                    <path d="M48.1058 157.301H44.2643C44.0188 157.301 43.8198 157.102 43.8198 156.856V155.124C43.8198 154.878 44.0188 154.679 44.2643 154.679H48.1058C48.3513 154.679 48.5503 154.878 48.5503 155.124V156.856C48.5503 157.102 48.3513 157.301 48.1058 157.301Z" fill="white"/>
                    <path d="M36.2118 137.351H56.1947" stroke="white" stroke-width="0.562362" stroke-miterlimit="10"/>
                    <path d="M36.2119 137.99C36.5331 137.99 36.7935 137.73 36.7935 137.409C36.7935 137.088 36.5331 136.827 36.2119 136.827C35.8906 136.827 35.6302 137.088 35.6302 137.409C35.6302 137.73 35.8906 137.99 36.2119 137.99Z" fill="#DF9334"/>
                    <path d="M56.1948 137.99C56.516 137.99 56.7764 137.73 56.7764 137.409C56.7764 137.088 56.516 136.827 56.1948 136.827C55.8736 136.827 55.6132 137.088 55.6132 137.409C55.6132 137.73 55.8736 137.99 56.1948 137.99Z" fill="#DF9334"/>
                    <path d="M37.286 146.275C37.286 141.35 41.2785 137.357 46.2034 137.357C51.1283 137.357 55.1208 141.35 55.1208 146.275" stroke="white" stroke-width="0.562362" stroke-miterlimit="10"/>
                    <path d="M46.9076 136.575H45.4989V137.984H46.9076V136.575Z" fill="#B9233E"/>
                    <path d="M28.4529 184.026L29.7868 179.336H30.4329L30.0591 181.159L28.6237 186.056H27.9822L28.4529 184.026ZM27.073 179.336L28.1345 183.933L28.4529 186.056H27.816L26.1868 179.336H27.073ZM32.1591 183.929L33.1975 179.336H34.0883L32.4637 186.056H31.8268L32.1591 183.929ZM30.5298 179.336L31.8268 184.026L32.2975 186.056H31.656L30.2714 181.159L29.8929 179.336H30.5298ZM35.9896 178.967V186.056H35.1358V178.967H35.9896ZM35.7865 183.37L35.4312 183.356C35.4342 183.015 35.485 182.699 35.5835 182.41C35.6819 182.118 35.8204 181.864 35.9988 181.649C36.1773 181.433 36.3896 181.267 36.6358 181.15C36.885 181.03 37.1604 180.97 37.4619 180.97C37.7081 180.97 37.9296 181.004 38.1265 181.072C38.3234 181.136 38.4911 181.241 38.6296 181.386C38.7711 181.53 38.8788 181.718 38.9527 181.949C39.0265 182.176 39.0634 182.455 39.0634 182.784V186.056H38.205V182.775C38.205 182.513 38.1665 182.304 38.0896 182.147C38.0127 181.987 37.9004 181.872 37.7527 181.801C37.605 181.727 37.4234 181.69 37.2081 181.69C36.9958 181.69 36.8019 181.735 36.6265 181.824C36.4542 181.913 36.305 182.036 36.1788 182.193C36.0558 182.35 35.9588 182.53 35.8881 182.733C35.8204 182.933 35.7865 183.146 35.7865 183.37ZM41.4586 181.063V186.056H40.6002V181.063H41.4586ZM40.5355 179.738C40.5355 179.599 40.5771 179.483 40.6602 179.387C40.7463 179.292 40.8725 179.244 41.0386 179.244C41.2017 179.244 41.3263 179.292 41.4125 179.387C41.5017 179.483 41.5463 179.599 41.5463 179.738C41.5463 179.87 41.5017 179.984 41.4125 180.079C41.3263 180.172 41.2017 180.218 41.0386 180.218C40.8725 180.218 40.7463 180.172 40.6602 180.079C40.5771 179.984 40.5355 179.87 40.5355 179.738ZM45.1092 181.063V181.718H42.4092V181.063H45.1092ZM43.323 179.849H44.1769V184.819C44.1769 184.989 44.203 185.116 44.2553 185.202C44.3076 185.289 44.3753 185.346 44.4584 185.373C44.5415 185.401 44.6307 185.415 44.7261 185.415C44.7969 185.415 44.8707 185.409 44.9476 185.396C45.0276 185.381 45.0876 185.369 45.1276 185.359L45.1322 186.056C45.0645 186.078 44.9753 186.098 44.8645 186.116C44.7569 186.138 44.6261 186.149 44.4722 186.149C44.263 186.149 44.0707 186.107 43.8953 186.024C43.7199 185.941 43.5799 185.802 43.4753 185.609C43.3738 185.412 43.323 185.147 43.323 184.815V179.849ZM48.372 186.149C48.0243 186.149 47.7089 186.09 47.4259 185.973C47.1459 185.853 46.9043 185.686 46.7013 185.47C46.5013 185.255 46.3474 184.999 46.2397 184.704C46.132 184.409 46.0782 184.086 46.0782 183.735V183.541C46.0782 183.135 46.1382 182.773 46.2582 182.456C46.3782 182.136 46.5413 181.866 46.7474 181.644C46.9536 181.423 47.1874 181.255 47.4489 181.141C47.7105 181.027 47.9813 180.97 48.2612 180.97C48.6182 180.97 48.9259 181.032 49.1843 181.155C49.4459 181.278 49.6597 181.45 49.8258 181.672C49.992 181.89 50.1151 182.149 50.1951 182.447C50.2751 182.743 50.3151 183.066 50.3151 183.416V183.799H46.5859V183.103H49.4612V183.038C49.4489 182.816 49.4028 182.601 49.3228 182.392C49.2459 182.183 49.1228 182.01 48.9536 181.875C48.7843 181.739 48.5536 181.672 48.2612 181.672C48.0674 181.672 47.8889 181.713 47.7259 181.796C47.5628 181.876 47.4228 181.996 47.3059 182.156C47.189 182.316 47.0982 182.512 47.0336 182.743C46.969 182.973 46.9366 183.239 46.9366 183.541V183.735C46.9366 183.972 46.969 184.195 47.0336 184.404C47.1013 184.61 47.1982 184.792 47.3243 184.949C47.4536 185.106 47.6089 185.229 47.7905 185.318C47.9751 185.407 48.1843 185.452 48.4182 185.452C48.7197 185.452 48.9751 185.39 49.1843 185.267C49.3935 185.144 49.5766 184.979 49.7335 184.773L50.2505 185.184C50.1428 185.347 50.0058 185.502 49.8397 185.65C49.6735 185.798 49.4689 185.918 49.2259 186.01C48.9859 186.102 48.7012 186.149 48.372 186.149ZM51.4964 178.967H52.3549V185.087L52.281 186.056H51.4964V178.967ZM55.7287 183.518V183.615C55.7287 183.978 55.6856 184.315 55.5995 184.626C55.5133 184.933 55.3872 185.201 55.221 185.429C55.0548 185.656 54.8518 185.833 54.6118 185.959C54.3718 186.086 54.0964 186.149 53.7856 186.149C53.4687 186.149 53.1902 186.095 52.9503 185.987C52.7133 185.876 52.5133 185.718 52.3503 185.512C52.1872 185.306 52.0564 185.056 51.958 184.764C51.8626 184.472 51.7964 184.142 51.7595 183.776V183.352C51.7964 182.983 51.8626 182.652 51.958 182.359C52.0564 182.067 52.1872 181.818 52.3503 181.612C52.5133 181.403 52.7133 181.244 52.9503 181.136C53.1872 181.026 53.4626 180.97 53.7764 180.97C54.0902 180.97 54.3687 181.032 54.6118 181.155C54.8548 181.275 55.0579 181.447 55.221 181.672C55.3872 181.896 55.5133 182.166 55.5995 182.479C55.6856 182.79 55.7287 183.136 55.7287 183.518ZM54.8702 183.615V183.518C54.8702 183.269 54.8472 183.035 54.801 182.816C54.7548 182.595 54.681 182.401 54.5795 182.235C54.4779 182.066 54.3441 181.933 54.1779 181.838C54.0118 181.739 53.8072 181.69 53.5641 181.69C53.3487 181.69 53.161 181.727 53.001 181.801C52.8441 181.875 52.7103 181.975 52.5995 182.101C52.4887 182.224 52.3979 182.366 52.3272 182.526C52.2595 182.683 52.2087 182.846 52.1749 183.015V184.127C52.2241 184.342 52.3041 184.55 52.4149 184.75C52.5287 184.947 52.6795 185.109 52.8672 185.235C53.0579 185.361 53.2933 185.424 53.5733 185.424C53.8041 185.424 54.001 185.378 54.1641 185.286C54.3302 185.19 54.4641 185.059 54.5656 184.893C54.6702 184.727 54.7472 184.535 54.7964 184.316C54.8456 184.098 54.8702 183.864 54.8702 183.615ZM56.7716 183.615V183.509C56.7716 183.149 56.8239 182.815 56.9285 182.507C57.0331 182.196 57.1839 181.927 57.3808 181.699C57.5777 181.469 57.8162 181.29 58.0962 181.164C58.3762 181.035 58.69 180.97 59.0377 180.97C59.3885 180.97 59.7038 181.035 59.9838 181.164C60.2669 181.29 60.5069 181.469 60.7038 181.699C60.9038 181.927 61.0561 182.196 61.1608 182.507C61.2654 182.815 61.3177 183.149 61.3177 183.509V183.615C61.3177 183.975 61.2654 184.309 61.1608 184.616C61.0561 184.924 60.9038 185.193 60.7038 185.424C60.5069 185.652 60.2685 185.83 59.9885 185.959C59.7115 186.086 59.3977 186.149 59.0469 186.149C58.6962 186.149 58.3808 186.086 58.1008 185.959C57.8208 185.83 57.5808 185.652 57.3808 185.424C57.1839 185.193 57.0331 184.924 56.9285 184.616C56.8239 184.309 56.7716 183.975 56.7716 183.615ZM57.6254 183.509V183.615C57.6254 183.864 57.6546 184.099 57.7131 184.321C57.7716 184.539 57.8593 184.733 57.9762 184.902C58.0962 185.072 58.2454 185.206 58.4239 185.304C58.6023 185.399 58.81 185.447 59.0469 185.447C59.2808 185.447 59.4854 185.399 59.6608 185.304C59.8392 185.206 59.9869 185.072 60.1038 184.902C60.2208 184.733 60.3085 184.539 60.3669 184.321C60.4285 184.099 60.4592 183.864 60.4592 183.615V183.509C60.4592 183.263 60.4285 183.03 60.3669 182.812C60.3085 182.59 60.2192 182.395 60.0992 182.226C59.9823 182.053 59.8346 181.918 59.6562 181.819C59.4808 181.721 59.2746 181.672 59.0377 181.672C58.8039 181.672 58.5977 181.721 58.4192 181.819C58.2439 181.918 58.0962 182.053 57.9762 182.226C57.8593 182.395 57.7716 182.59 57.7131 182.812C57.6546 183.03 57.6254 183.263 57.6254 183.509ZM65.5221 185.202V182.632C65.5221 182.435 65.4821 182.264 65.4021 182.119C65.3251 181.972 65.2082 181.858 65.0513 181.778C64.8944 181.698 64.7005 181.658 64.4698 181.658C64.2544 181.658 64.0652 181.695 63.9021 181.769C63.7421 181.843 63.6159 181.939 63.5236 182.059C63.4344 182.179 63.3898 182.309 63.3898 182.447H62.5359C62.5359 182.269 62.5821 182.092 62.6744 181.916C62.7667 181.741 62.899 181.583 63.0713 181.441C63.2467 181.296 63.4559 181.183 63.699 181.099C63.9452 181.013 64.219 180.97 64.5205 180.97C64.8836 180.97 65.2036 181.032 65.4805 181.155C65.7605 181.278 65.979 181.464 66.1359 181.713C66.2959 181.959 66.3759 182.269 66.3759 182.641V184.967C66.3759 185.133 66.3898 185.31 66.4174 185.498C66.4482 185.686 66.4928 185.847 66.5513 185.982V186.056H65.6605C65.6175 185.958 65.5836 185.827 65.559 185.664C65.5344 185.498 65.5221 185.344 65.5221 185.202ZM65.6698 183.029L65.679 183.629H64.8159C64.5728 183.629 64.3559 183.649 64.1652 183.689C63.9744 183.726 63.8144 183.782 63.6852 183.859C63.5559 183.936 63.4575 184.033 63.3898 184.15C63.3221 184.264 63.2882 184.398 63.2882 184.552C63.2882 184.709 63.3236 184.852 63.3944 184.981C63.4652 185.11 63.5713 185.213 63.7129 185.29C63.8575 185.364 64.0344 185.401 64.2436 185.401C64.5052 185.401 64.7359 185.346 64.9359 185.235C65.1359 185.124 65.2944 184.989 65.4113 184.829C65.5313 184.669 65.5959 184.513 65.6051 184.362L65.9698 184.773C65.9482 184.902 65.8898 185.046 65.7944 185.202C65.699 185.359 65.5713 185.51 65.4113 185.655C65.2544 185.796 65.0667 185.915 64.8482 186.01C64.6328 186.102 64.3898 186.149 64.119 186.149C63.7805 186.149 63.4836 186.082 63.2282 185.95C62.9759 185.818 62.779 185.641 62.6375 185.419C62.499 185.195 62.4298 184.944 62.4298 184.667C62.4298 184.399 62.4821 184.164 62.5867 183.961C62.6913 183.755 62.8421 183.584 63.039 183.449C63.2359 183.31 63.4729 183.206 63.7498 183.135C64.0267 183.064 64.3359 183.029 64.6775 183.029H65.6698ZM68.7619 181.847V186.056H67.908V181.063H68.7388L68.7619 181.847ZM70.3218 181.035L70.3172 181.829C70.2465 181.813 70.1788 181.804 70.1142 181.801C70.0526 181.795 69.9818 181.792 69.9018 181.792C69.7049 181.792 69.5311 181.823 69.3803 181.884C69.2295 181.946 69.1019 182.032 68.9972 182.143C68.8926 182.253 68.8095 182.386 68.748 182.539C68.6895 182.69 68.6511 182.856 68.6326 183.038L68.3926 183.176C68.3926 182.875 68.4219 182.592 68.4803 182.327C68.5419 182.063 68.6357 181.829 68.7619 181.626C68.888 181.419 69.048 181.259 69.2419 181.146C69.4388 181.029 69.6726 180.97 69.9434 180.97C70.0049 180.97 70.0757 180.978 70.1557 180.993C70.2357 181.006 70.2911 181.019 70.3218 181.035ZM74.3555 185.087V178.967H75.2139V186.056H74.4293L74.3555 185.087ZM70.9955 183.615V183.518C70.9955 183.136 71.0417 182.79 71.134 182.479C71.2293 182.166 71.3632 181.896 71.5355 181.672C71.7109 181.447 71.9186 181.275 72.1586 181.155C72.4016 181.032 72.6724 180.97 72.9709 180.97C73.2847 180.97 73.5586 181.026 73.7924 181.136C74.0293 181.244 74.2293 181.403 74.3924 181.612C74.5585 181.818 74.6893 182.067 74.7847 182.359C74.8801 182.652 74.9462 182.983 74.9832 183.352V183.776C74.9493 184.142 74.8832 184.472 74.7847 184.764C74.6893 185.056 74.5585 185.306 74.3924 185.512C74.2293 185.718 74.0293 185.876 73.7924 185.987C73.5555 186.095 73.2786 186.149 72.9616 186.149C72.6693 186.149 72.4016 186.086 72.1586 185.959C71.9186 185.833 71.7109 185.656 71.5355 185.429C71.3632 185.201 71.2293 184.933 71.134 184.626C71.0417 184.315 70.9955 183.978 70.9955 183.615ZM71.854 183.518V183.615C71.854 183.864 71.8786 184.098 71.9278 184.316C71.9801 184.535 72.0601 184.727 72.1678 184.893C72.2755 185.059 72.4124 185.19 72.5786 185.286C72.7447 185.378 72.9432 185.424 73.1739 185.424C73.457 185.424 73.6893 185.364 73.8709 185.244C74.0555 185.124 74.2032 184.966 74.3139 184.769C74.4247 184.572 74.5109 184.358 74.5724 184.127V183.015C74.5355 182.846 74.4816 182.683 74.4109 182.526C74.3432 182.366 74.2539 182.224 74.1432 182.101C74.0355 181.975 73.9016 181.875 73.7416 181.801C73.5847 181.727 73.3986 181.69 73.1832 181.69C72.9493 181.69 72.7478 181.739 72.5786 181.838C72.4124 181.933 72.2755 182.066 72.1678 182.235C72.0601 182.401 71.9801 182.595 71.9278 182.816C71.8786 183.035 71.854 183.269 71.854 183.518Z" fill="#0D0D0D"/>
                    <rect x="25.9053" y="197.704" width="89.6089" height="6.25179" fill="#83B7AD"/>
                    <rect x="25.9053" y="211.596" width="89.6089" height="6.25179" fill="#83B7AD"/>
                    <rect x="25.9053" y="224.1" width="89.6089" height="6.25179" fill="#83B7AD"/>
                    <g filter="url(#filter2_bi_103_3)">
                    <rect width="116.7" height="93.0821" rx="6.90946" transform="matrix(-1 0 0 1 426.714 307.457)" fill="white" fill-opacity="0.1"/>
                    <rect width="116.7" height="93.0821" rx="6.90946" transform="matrix(-1 0 0 1 426.714 307.457)" fill="url(#paint4_linear_103_3)" fill-opacity="0.08"/>
                    <rect x="-0.940454" y="0.940454" width="114.819" height="91.2012" rx="5.969" transform="matrix(-1 0 0 1 424.833 307.457)" stroke="url(#paint5_linear_103_3)" stroke-opacity="0.1" stroke-width="1.88091"/>
                    </g>
                    <g filter="url(#filter3_bi_103_3)">
                    <rect x="298.205" y="312.32" width="118.784" height="93.0821" rx="6.90946" fill="white"/>
                    <rect x="298.205" y="312.32" width="118.784" height="93.0821" rx="6.90946" fill="url(#paint6_linear_103_3)" fill-opacity="0.08"/>
                    <rect x="299.146" y="313.26" width="116.903" height="91.2012" rx="5.969" stroke="url(#paint7_linear_103_3)" stroke-opacity="0.1" stroke-width="1.88091"/>
                    </g>
                    <rect x="314.877" y="329.686" width="50.7089" height="4.16786" rx="2.08393" fill="#EFE3EC"/>
                    <rect x="314.877" y="335.938" width="29.8696" height="4.16786" rx="2.08393" fill="#EFE3EC"/>
                    <rect x="378.784" y="337.327" width="18.0607" height="18.0607" rx="5.55714" fill="#F4C584"/>
                    <rect x="310.014" y="356.777" width="6.25179" height="40.2893" fill="#77B0A8"/>
                    <rect x="335.021" y="367.196" width="6.25179" height="29.8696" fill="#EE7C92"/>
                    <rect x="360.029" y="374.837" width="6.25179" height="22.2286" fill="#92BEFA"/>
                    <rect x="382.952" y="383.868" width="6.25179" height="13.1982" fill="#EE7C92"/>
                    <rect x="317.655" y="368.586" width="6.25179" height="28.4804" fill="#EF988F"/>
                    <rect x="342.662" y="376.227" width="6.25179" height="20.8393" fill="#FCECEB"/>
                    <rect x="367.67" y="381.784" width="6.25179" height="15.2821" fill="#F18A7E"/>
                    <rect x="390.593" y="388.036" width="6.25179" height="9.03036" fill="#EF9890"/>
                    <defs>
                    <filter id="filter0_bi_103_3" x="-27.3154" y="68.7667" width="174.516" height="204.386" filterUnits="userSpaceOnUse" color-interpolation-filters="sRGB">
                    <feFlood flood-opacity="0" result="BackgroundImageFix"/>
                    <feGaussianBlur in="BackgroundImage" stdDeviation="14.1068"/>
                    <feComposite in2="SourceAlpha" operator="in" result="effect1_backgroundBlur_103_3"/>
                    <feBlend mode="normal" in="SourceGraphic" in2="effect1_backgroundBlur_103_3" result="shape"/>
                    <feColorMatrix in="SourceAlpha" type="matrix" values="0 0 0 0 0 0 0 0 0 0 0 0 0 0 0 0 0 0 127 0" result="hardAlpha"/>
                    <feOffset dy="4.70227"/>
                    <feGaussianBlur stdDeviation="9.40454"/>
                    <feComposite in2="hardAlpha" operator="arithmetic" k2="-1" k3="1"/>
                    <feColorMatrix type="matrix" values="0 0 0 0 1 0 0 0 0 1 0 0 0 0 1 0 0 0 0.4 0"/>
                    <feBlend mode="normal" in2="shape" result="effect2_innerShadow_103_3"/>
                    </filter>
                    <filter id="filter1_bi_103_3" x="-17.5905" y="76.4078" width="176.6" height="204.386" filterUnits="userSpaceOnUse" color-interpolation-filters="sRGB">
                    <feFlood flood-opacity="0" result="BackgroundImageFix"/>
                    <feGaussianBlur in="BackgroundImage" stdDeviation="14.1068"/>
                    <feComposite in2="SourceAlpha" operator="in" result="effect1_backgroundBlur_103_3"/>
                    <feBlend mode="normal" in="SourceGraphic" in2="effect1_backgroundBlur_103_3" result="shape"/>
                    <feColorMatrix in="SourceAlpha" type="matrix" values="0 0 0 0 0 0 0 0 0 0 0 0 0 0 0 0 0 0 127 0" result="hardAlpha"/>
                    <feOffset dy="4.70227"/>
                    <feGaussianBlur stdDeviation="9.40454"/>
                    <feComposite in2="hardAlpha" operator="arithmetic" k2="-1" k3="1"/>
                    <feColorMatrix type="matrix" values="0 0 0 0 1 0 0 0 0 1 0 0 0 0 1 0 0 0 0.4 0"/>
                    <feBlend mode="normal" in2="shape" result="effect2_innerShadow_103_3"/>
                    </filter>
                    <filter id="filter2_bi_103_3" x="281.801" y="279.244" width="173.127" height="149.509" filterUnits="userSpaceOnUse" color-interpolation-filters="sRGB">
                    <feFlood flood-opacity="0" result="BackgroundImageFix"/>
                    <feGaussianBlur in="BackgroundImage" stdDeviation="14.1068"/>
                    <feComposite in2="SourceAlpha" operator="in" result="effect1_backgroundBlur_103_3"/>
                    <feBlend mode="normal" in="SourceGraphic" in2="effect1_backgroundBlur_103_3" result="shape"/>
                    <feColorMatrix in="SourceAlpha" type="matrix" values="0 0 0 0 0 0 0 0 0 0 0 0 0 0 0 0 0 0 127 0" result="hardAlpha"/>
                    <feOffset dy="4.70227"/>
                    <feGaussianBlur stdDeviation="9.40454"/>
                    <feComposite in2="hardAlpha" operator="arithmetic" k2="-1" k3="1"/>
                    <feColorMatrix type="matrix" values="0 0 0 0 1 0 0 0 0 1 0 0 0 0 1 0 0 0 0.4 0"/>
                    <feBlend mode="normal" in2="shape" result="effect2_innerShadow_103_3"/>
                    </filter>
                    <filter id="filter3_bi_103_3" x="269.992" y="284.106" width="175.211" height="149.509" filterUnits="userSpaceOnUse" color-interpolation-filters="sRGB">
                    <feFlood flood-opacity="0" result="BackgroundImageFix"/>
                    <feGaussianBlur in="BackgroundImage" stdDeviation="14.1068"/>
                    <feComposite in2="SourceAlpha" operator="in" result="effect1_backgroundBlur_103_3"/>
                    <feBlend mode="normal" in="SourceGraphic" in2="effect1_backgroundBlur_103_3" result="shape"/>
                    <feColorMatrix in="SourceAlpha" type="matrix" values="0 0 0 0 0 0 0 0 0 0 0 0 0 0 0 0 0 0 127 0" result="hardAlpha"/>
                    <feOffset dy="4.70227"/>
                    <feGaussianBlur stdDeviation="9.40454"/>
                    <feComposite in2="hardAlpha" operator="arithmetic" k2="-1" k3="1"/>
                    <feColorMatrix type="matrix" values="0 0 0 0 1 0 0 0 0 1 0 0 0 0 1 0 0 0 0.4 0"/>
                    <feBlend mode="normal" in2="shape" result="effect2_innerShadow_103_3"/>
                    </filter>
                    <linearGradient id="paint0_linear_103_3" x1="5.81858" y1="126.572" x2="135.436" y2="140.94" gradientUnits="userSpaceOnUse">
                    <stop stop-color="#FE82DB"/>
                    <stop offset="1" stop-color="#68E4FF"/>
                    </linearGradient>
                    <linearGradient id="paint1_linear_103_3" x1="4.58848" y1="103.706" x2="118.987" y2="103.706" gradientUnits="userSpaceOnUse">
                    <stop stop-color="#FD84DC"/>
                    <stop offset="1" stop-color="#7FD6FA"/>
                    </linearGradient>
                    <linearGradient id="paint2_linear_103_3" x1="5.00722" y1="29.5918" x2="136.855" y2="44.4651" gradientUnits="userSpaceOnUse">
                    <stop stop-color="#FE82DB"/>
                    <stop offset="1" stop-color="#68E4FF"/>
                    </linearGradient>
                    <linearGradient id="paint3_linear_103_3" x1="3.75541" y1="6.72541" x2="120.173" y2="6.72541" gradientUnits="userSpaceOnUse">
                    <stop stop-color="#FD84DC"/>
                    <stop offset="1" stop-color="#7FD6FA"/>
                    </linearGradient>
                    <linearGradient id="paint4_linear_103_3" x1="4.8625" y1="18.6164" x2="130.713" y2="40.5307" gradientUnits="userSpaceOnUse">
                    <stop stop-color="#FE82DB"/>
                    <stop offset="1" stop-color="#68E4FF"/>
                    </linearGradient>
                    <linearGradient id="paint5_linear_103_3" x1="3.64688" y1="4.23101" x2="116.7" y2="4.23101" gradientUnits="userSpaceOnUse">
                    <stop stop-color="#FD84DC"/>
                    <stop offset="1" stop-color="#7FD6FA"/>
                    </linearGradient>
                    <linearGradient id="paint6_linear_103_3" x1="303.155" y1="330.936" x2="431.117" y2="353.616" gradientUnits="userSpaceOnUse">
                    <stop stop-color="#FE82DB"/>
                    <stop offset="1" stop-color="#68E4FF"/>
                    </linearGradient>
                    <linearGradient id="paint7_linear_103_3" x1="301.917" y1="316.551" x2="416.989" y2="316.551" gradientUnits="userSpaceOnUse">
                    <stop stop-color="#FD84DC"/>
                    <stop offset="1" stop-color="#7FD6FA"/>
                    </linearGradient>
                    <clipPath id="clip0_103_3">
                    <rect width="265.354" height="406.366" fill="white" transform="translate(105.095 12.2339)"/>
                    </clipPath>
                    </defs>
                </svg>