<svg width="301" height="154" viewBox="0 0 301 154" fill="none" xmlns="http://www.w3.org/2000/svg">
<path d="M292.024 79.6089V84.5609" stroke="#E1D5F8" stroke-width="1.38929" stroke-miterlimit="10" stroke-linecap="round" stroke-linejoin="round"/>
<path d="M292.024 94.217V89.2651" stroke="#E1D5F8" stroke-width="1.38929" stroke-miterlimit="10" stroke-linecap="round" stroke-linejoin="round"/>
<path d="M299.326 86.9129H294.376" stroke="#E1D5F8" stroke-width="1.38929" stroke-miterlimit="10" stroke-linecap="round" stroke-linejoin="round"/>
<path d="M284.722 86.9129H289.673" stroke="#E1D5F8" stroke-width="1.38929" stroke-miterlimit="10" stroke-linecap="round" stroke-linejoin="round"/>
<path d="M3.20409 105.469C4.20658 105.469 5.01926 104.656 5.01926 103.653C5.01926 102.65 4.20658 101.837 3.20409 101.837C2.2016 101.837 1.38892 102.65 1.38892 103.653C1.38892 104.656 2.2016 105.469 3.20409 105.469Z" stroke="#E1D5F8" stroke-width="1.38929" stroke-miterlimit="10" stroke-linecap="round" stroke-linejoin="round"/>
<path d="M138.449 153.055C141.274 153.055 143.564 150.764 143.564 147.938C143.564 145.112 141.274 142.821 138.449 142.821C135.624 142.821 133.333 145.112 133.333 147.938C133.333 150.764 135.624 153.055 138.449 153.055Z" stroke="#E1D5F8" stroke-width="1.38929" stroke-miterlimit="10" stroke-linecap="round" stroke-linejoin="round"/>
<path d="M112.163 1.11429V6.0662" stroke="#E1D5F8" stroke-width="1.38929" stroke-miterlimit="10" stroke-linecap="round" stroke-linejoin="round"/>
<path d="M112.163 15.7223V10.7704" stroke="#E1D5F8" stroke-width="1.38929" stroke-miterlimit="10" stroke-linecap="round" stroke-linejoin="round"/>
<path d="M119.465 8.41821H114.515" stroke="#E1D5F8" stroke-width="1.38929" stroke-miterlimit="10" stroke-linecap="round" stroke-linejoin="round"/>
<path d="M104.861 8.41821H109.812" stroke="#E1D5F8" stroke-width="1.38929" stroke-miterlimit="10" stroke-linecap="round" stroke-linejoin="round"/>
</svg>
