<svg width="432" height="276" viewBox="0 0 432 276" fill="none" xmlns="http://www.w3.org/2000/svg">
                    <g clip-path="url(#clip0_394_216)">
                    <path d="M0.571411 275.855C0.571411 164.6 90.762 74.4089 202.018 74.4089H229.804C341.059 74.4089 431.25 164.6 431.25 275.855H0.571411Z" fill="#EDF6E8"/>
                    <path d="M308.444 251.327C290.781 259.841 278.475 257.957 268.69 249.113C258.917 240.282 232.52 177.263 232.52 177.263C232.52 177.263 214.906 127.638 214.992 113.926C215.004 110.77 215.946 107.553 217.389 104.483C222.184 94.2448 232.52 85.5723 232.52 85.5723C232.52 85.5723 252.605 76.6919 262.696 96.0306C272.8 115.369 308.444 200.504 308.444 200.504C308.444 200.504 311.551 207.941 313.862 217.2C317.043 230.044 318.706 246.386 308.444 251.327Z" fill="#EE9087"/>
                    <path d="M308.444 251.327C290.781 259.841 278.475 257.957 268.69 249.113C258.917 240.282 232.52 177.263 232.52 177.263C232.52 177.263 214.906 127.638 214.992 113.926C215.004 110.77 215.946 107.553 217.389 104.483C220.105 102.88 221.988 102.012 221.988 102.012C244.373 120.788 266.231 142.316 266.537 176.92C266.782 204.626 287.992 221.298 313.862 217.2C317.043 230.044 318.706 246.386 308.444 251.327Z" fill="#D36265"/>
                    <path d="M201.061 95.6838C212.277 89.187 224.168 84.9734 236.111 80.131C237.272 79.66 236.863 77.8998 235.581 78.2074C223.095 81.2026 211.186 87.7764 200.367 94.4976C199.618 94.9631 200.292 96.129 201.061 95.6838Z" fill="white"/>
                    <path d="M246.34 78.441C247.886 78.7181 249.334 79.2009 250.758 79.8693C251.894 80.4027 252.914 81.3339 254.198 81.3799C254.816 81.402 255.046 80.7471 254.838 80.2655C254.271 78.9539 252.561 78.3862 251.305 77.9072C249.786 77.3281 248.156 77.0829 246.542 76.9511C245.698 76.8822 245.497 78.2899 246.34 78.441Z" fill="white"/>
                    <path d="M265.093 88.3937C273.293 96.4507 275.114 108.743 282.883 117.03C283.862 118.075 285.699 116.705 284.89 115.481C278.712 106.143 275.161 94.4298 266.098 87.3886C265.398 86.8446 264.42 87.7327 265.093 88.3937Z" fill="white"/>
                    <path d="M242.529 200.755C242.529 200.755 249.453 174.81 252.651 159.083C253.405 155.347 253.966 152.189 254.16 150.092C255.193 139.134 234.763 101.737 234.763 101.737L232.521 85.577C232.521 85.577 224.459 90.7401 213.979 96.0267C205.603 100.246 195.693 104.544 187.113 106.33C179.296 107.973 164.544 106.348 149.776 103.827C137.09 101.676 124.39 98.8693 116.041 96.9121C109.487 95.3757 102.956 99.4133 101.33 105.945C100.148 110.693 99.087 116.574 98.1865 122.972C97.3097 129.227 96.5688 135.961 96.033 142.633C94.5791 160.523 94.4828 177.867 96.3877 183.575C100.675 196.374 118.195 224.658 118.195 224.658L103.895 275.253H263.92C259.623 260.906 247.56 220.374 242.529 200.755Z" fill="#EE9087"/>
                    <g opacity="0.4">
                    <g opacity="0.4">
                    <path opacity="0.4" d="M102.771 244.671C98.2523 257.16 95.3097 270.437 93.2317 283.54C92.9778 285.141 95.4085 285.849 95.6967 284.219C98.0348 270.996 101.36 258.194 104.845 245.243C105.209 243.889 103.237 243.386 102.771 244.671Z" fill="#DE9234"/>
                    </g>
                    </g>
                    <path d="M183.068 243.853C220.032 234.75 242.529 200.755 242.529 200.755C242.529 200.755 249.453 174.81 252.651 159.083C242.906 174.196 223.363 202.331 211.281 204.712C194.685 207.986 151.145 204.662 139.93 186.804C129.028 169.43 105.784 143.158 98.1866 122.972C94.9372 145.993 93.7684 175.731 96.3878 183.575C100.675 196.374 118.195 224.658 118.195 224.658L103.895 275.253H154.996C157.922 260.054 166.967 247.816 183.068 243.853Z" fill="#F08175"/>
                    <path d="M118.195 224.658C118.195 224.658 100.675 196.374 96.3878 183.575C94.4829 177.867 94.5791 160.523 96.033 142.633C103.404 134.006 109.505 132.085 109.505 132.085L139.622 156.199C141.465 172.281 147.743 210.2 118.195 224.658Z" fill="#D36265"/>
                    <path d="M111.36 186.156L127.522 214.849" stroke="#182D3C" stroke-width="1.83479" stroke-miterlimit="10" stroke-linecap="round" stroke-linejoin="round"/>
                    <path d="M130.837 237.295L119.441 274.128" stroke="white" stroke-width="1.83479" stroke-miterlimit="10" stroke-linecap="round" stroke-linejoin="round"/>
                    <path d="M125.01 225.835C125.01 225.835 147.74 238.987 155.181 245.333" stroke="#182D3C" stroke-width="1.83479" stroke-miterlimit="10" stroke-linecap="round" stroke-linejoin="round"/>
                    <path d="M129.298 221.777C129.298 221.777 145.895 225.671 151.241 227.783" stroke="#182D3C" stroke-width="1.83479" stroke-miterlimit="10" stroke-linecap="round" stroke-linejoin="round"/>
                    <path d="M223.342 153.179C221.194 170.169 215.717 185.385 213.79 190.377C213.352 191.491 213.105 192.095 213.105 192.095L192.625 161.966L149.776 103.826C164.544 106.348 179.296 107.973 187.113 106.329C193.183 105.072 199.912 102.544 206.31 99.6817C208.617 98.6464 210.885 97.5693 213.043 96.5029C213.36 96.3353 213.676 96.1811 213.979 96.0267C214.524 97.8863 215.116 100.032 215.758 102.369C219.761 117.113 225.022 139.907 223.342 153.179Z" fill="#F19B51"/>
                    <path d="M223.342 153.179C221.194 170.169 215.717 185.385 213.79 190.377L210.449 187.085C214.984 150.834 208.019 109.073 206.31 99.6817C208.617 98.6465 210.885 97.5694 213.043 96.5029C213.558 97.5207 214.546 99.5687 215.757 102.369C219.761 117.113 225.021 139.907 223.342 153.179Z" fill="#F1903D"/>
                    <path d="M187.332 113.928C187.332 113.928 204.06 150.245 209.908 177.268" stroke="white" stroke-width="1.83479" stroke-miterlimit="10" stroke-linecap="round" stroke-linejoin="round"/>
                    <path d="M137.466 102.128C137.466 102.128 140.488 139.436 142.442 155.213L174.854 157.755L173.301 176.23C173.301 176.23 195.097 182.787 213.307 194.958C213.307 194.958 229.461 174.977 237.546 167.491L228.175 156.476L239.52 149.641C239.52 149.641 227.893 118.361 215.774 105.06L213.465 106.53C213.465 106.53 220.301 155.717 212.639 187.836C212.639 187.836 172.711 127.269 151.168 113.307L137.466 102.128Z" fill="#8D2429"/>
                    <path d="M134.745 99.627C134.745 99.627 142.318 132.423 144.215 150.284L174.986 152.965L171.959 169.589C171.959 169.589 195.14 181.241 213.307 194.959C213.307 194.959 229.535 172.271 236.263 161.256L228.83 151.138L239.687 143.541C239.687 143.541 228.173 108.158 216.101 93.1386L208.28 97.1467C208.28 97.1467 220.445 150.491 212.664 186.895C212.664 186.895 172.953 118.447 151.459 102.713L134.745 99.627Z" fill="white"/>
                    <path d="M196.682 107.693C195.02 111.676 187.631 109.848 187.631 109.848C174.893 110.718 168.666 108.555 168.666 108.555L164.737 68.4945L166.976 69.0734L190.899 75.4219L195.481 106.446L196.682 107.693Z" fill="#F5C3C0"/>
                    <path d="M195.481 106.446C170.585 104.543 167.352 78.2497 166.976 69.0734L190.899 75.4219L195.481 106.446Z" fill="#CF8E87"/>
                    <path d="M151.703 30.327C151.703 30.327 131.952 40.2816 131.131 60.7717C130.31 81.2618 118.304 136.261 55.7585 136.614C21.1968 136.775 7.88879 123.399 3.1079 110.406C-1.4367 98.2327 1.51191 86.4125 1.51191 86.4125C21.7892 104.414 48.9705 94.4046 62.0441 57.0647C75.1168 19.7615 97.6979 -0.390128 122.161 5.15993C136.816 8.48189 144.532 16.8986 148.317 23.0639C150.902 27.2005 151.703 30.327 151.703 30.327Z" fill="#5B1C10"/>
                    <path d="M151.703 30.327C151.703 30.327 131.952 40.2816 131.131 60.7717C130.31 81.2617 118.304 136.261 55.7585 136.614C21.1969 136.775 7.8888 123.399 3.10791 110.406C38.9568 149.533 92.404 118.438 94.6351 84.2744C96.9898 48.3033 101.272 26.9472 121.805 19.4536C132.856 15.4324 142.11 18.9388 148.317 23.0639C150.902 27.2005 151.703 30.327 151.703 30.327Z" fill="#5B1C10"/>
                    <path d="M221.25 70.1949C218.233 92.6075 201.423 94.7625 201.423 94.7625C201.423 94.7625 190.217 97.7796 175.693 86.7946C168.927 77.9646 154.699 23.4979 175.402 17.9309C177.413 17.3946 179.308 17.0031 181.089 16.7562C221.25 5.97401 224.267 47.7822 221.25 70.1949Z" fill="#F5C3C0"/>
                    <path d="M196.045 75.7445C196.112 75.7632 196.182 75.7758 196.255 75.7798C196.448 75.7924 200.98 76.0334 202.738 72.3417C202.925 71.9464 202.84 71.4752 202.525 71.1714C199.764 68.5108 198.04 62.2197 198.023 62.156C197.876 61.6098 197.314 61.2923 196.775 61.4396C196.233 61.5868 195.912 62.1445 196.059 62.6869C196.129 62.9501 197.737 68.8095 200.554 72.0447C199.186 73.8819 196.409 73.7519 196.379 73.7496C195.82 73.7189 195.339 74.1464 195.306 74.7055C195.278 75.1914 195.593 75.6181 196.045 75.7445Z" fill="#5B1C10"/>
                    <path d="M194.958 87.4354C202.365 88.4892 204.251 83.6847 204.251 83.6847C204.251 83.6847 205.074 82.9397 204.902 82.4057L189.92 80.679C189.786 81.4012 189.82 81.7497 189.92 82.4238C190.308 85.0593 193.749 87.0969 194.958 87.4354Z" fill="#5B1C10"/>
                    <path d="M191.7 51.802C191.7 51.802 192.15 50.3601 191.149 49.5792C190.148 48.7983 190.002 50.7552 190.002 50.7552C190.002 50.7552 181.905 49.0428 180.845 57.1883C180.845 57.1883 183.784 50.0929 191.7 51.802Z" fill="#5B1C10"/>
                    <path d="M201.228 52.8704C201.228 52.8704 201.478 48.7649 202.479 47.984C203.481 47.2031 203.626 49.1601 203.626 49.1601C203.626 49.1601 211.723 47.4477 212.783 55.5931C212.783 55.5931 209.144 51.1614 201.228 52.8704Z" fill="#5B1C10"/>
                    <path d="M189.543 64.3907C191.282 64.3803 192.68 62.6171 192.667 60.4524C192.655 58.2877 191.235 56.5414 189.497 56.5517C187.758 56.5621 186.36 58.3254 186.373 60.49C186.385 62.6547 187.805 64.4011 189.543 64.3907Z" fill="#5B1C10"/>
                    <path d="M190.398 63.5232C190.975 63.6847 191.573 63.3483 191.734 62.7719C191.896 62.1955 191.559 61.5973 190.983 61.4359C190.407 61.2745 189.808 61.6109 189.647 62.1873C189.486 62.7637 189.822 63.3618 190.398 63.5232Z" fill="white"/>
                    <path d="M206.106 63.6656C207.844 63.6552 209.243 61.892 209.23 59.7273C209.217 57.5626 207.797 55.8162 206.059 55.8266C204.321 55.837 202.922 57.6002 202.935 59.7649C202.948 61.9296 204.368 63.676 206.106 63.6656Z" fill="#5B1C10"/>
                    <path d="M206.777 62.6612C207.353 62.8226 207.951 62.4862 208.113 61.9098C208.274 61.3334 207.938 60.7353 207.361 60.5739C206.785 60.4125 206.187 60.7489 206.025 61.3253C205.864 61.9017 206.2 62.4998 206.777 62.6612Z" fill="white"/>
                    <path d="M193.665 94.7626C188.493 95.1936 176.855 88.2974 175.693 86.7946C153.846 71.111 151.335 21.8658 172.038 16.2987C170.257 16.5456 174.048 15.7624 172.038 16.2987C166.829 53.9287 177.801 80.2455 193.665 94.7626Z" fill="#EFA097"/>
                    <path d="M157.455 21.4808C157.455 21.4808 151.377 18.1355 145.457 22.6473C139.537 27.1591 142.262 43.6872 153.766 40.0766C165.27 36.4659 162.63 23.6795 157.455 21.4808Z" fill="#ED7A92"/>
                    <path d="M232.544 48.8079C223.934 60.8791 202.631 60.0359 195 44.5251C187.405 29.0153 177.76 33.0011 177.76 33.0011C178.571 38.4933 178.345 42.6636 177.557 45.8204C175.199 54.9586 168.086 55.5766 168.086 55.5766L167.913 61.8551L161.16 62.8155C161.16 62.8155 146.166 42.1869 153.044 25.9286C153.123 25.746 153.202 25.5264 153.281 25.3438C160.753 8.99099 178.556 13.4341 178.556 13.4341C178.556 13.4341 193.451 1.31369 211.345 7.82924C235.278 16.5432 226.796 48.1697 226.796 48.1697L232.544 48.8079Z" fill="#5B1C10"/>
                    <path d="M177.557 45.8202C175.199 54.9584 168.086 55.5764 168.086 55.5764L167.913 61.8549L161.16 62.8153C161.16 62.8153 146.166 42.1867 153.044 25.9284C157.518 37.9523 169.602 43.4214 177.557 45.8202Z" fill="#5B1C10"/>
                    <path d="M166.49 63.8361L168.136 71.0515C168.136 71.0515 165.69 79.5778 154.084 75.2391C141.509 70.5385 138.475 48.8596 153.435 51.1404C159.96 52.1353 165.022 57.4001 166.49 63.8361Z" fill="#F5C3C0"/>
                    <path d="M198.545 109.141C198.545 109.141 194.384 112.424 190.369 114.443L184.838 110.874L184.249 116.039C177.44 116.042 167.286 111.45 167.286 111.45L167.796 103.747L194.724 101.847L198.545 109.141Z" fill="#473C6B"/>
                    <path d="M212.086 197.253L201.89 233.315L206.988 273.678" stroke="white" stroke-width="1.83479" stroke-miterlimit="10" stroke-linecap="round" stroke-linejoin="round"/>
                    <path d="M219.869 235.389C219.941 232.786 217.889 230.619 215.286 230.547C212.683 230.476 210.515 232.528 210.444 235.13C210.373 237.733 212.425 239.901 215.027 239.972C217.63 240.044 219.798 237.992 219.869 235.389Z" fill="white"/>
                    <path d="M224.872 260.62C224.943 258.017 222.891 255.85 220.289 255.778C217.686 255.707 215.518 257.759 215.447 260.361C215.375 262.964 217.427 265.132 220.03 265.203C222.633 265.275 224.8 263.223 224.872 260.62Z" fill="white"/>
                    <g opacity="0.4">
                    <g opacity="0.4">
                    <path opacity="0.4" d="M19.9504 169.194C19.2766 188.835 20.2649 208.693 23.6298 228.091C24.9755 235.85 27.5584 243.073 32.406 249.351C36.0657 254.091 41.7478 259.993 47.8901 261.141C48.6822 261.289 49.3774 260.346 48.721 259.713C43.2752 254.46 37.1407 251.377 32.8371 244.776C28.3559 237.902 26.8331 229.992 25.7438 221.999C23.3635 204.533 22.2547 186.807 21.6705 169.194C21.6338 168.088 19.9884 168.086 19.9504 169.194Z" fill="#DE9234"/>
                    </g>
                    </g>
                    <g opacity="0.4">
                    <g opacity="0.4">
                    <path opacity="0.4" d="M56.694 261.463C60.596 261.995 66.0257 263.077 69.7059 261.344C70.3738 261.029 70.1614 259.991 69.5061 259.816C67.6057 259.307 65.5534 259.699 63.5983 259.719C61.3829 259.742 59.1774 259.621 56.9734 259.399C55.8069 259.281 55.5193 261.303 56.694 261.463Z" fill="#DE9234"/>
                    </g>
                    </g>
                    <g opacity="0.4">
                    <g opacity="0.4">
                    <path opacity="0.4" d="M79.0802 259.077C86.012 255.349 91.5173 249.509 96.1345 243.211C101.419 236.003 106.816 227.402 109.311 218.793C109.67 217.557 107.932 216.87 107.27 217.932C102.763 225.164 99.567 233.091 94.7335 240.179C90.055 247.039 84.537 252.619 78.0597 257.755C77.2856 258.368 78.2721 259.512 79.0802 259.077Z" fill="#DE9234"/>
                    </g>
                    </g>
                    <path d="M216.746 250.773L172.112 256.486L166.302 250.211L152.235 251.899V219.178C152.235 219.178 155.416 218.616 160.002 217.808C171.048 215.888 190.301 212.622 193.114 212.72C195.279 212.793 202.08 224.047 207.829 234.309C212.661 242.896 216.746 250.773 216.746 250.773Z" fill="#F5C3C0"/>
                    <path d="M216.746 250.774L172.112 256.486L166.302 250.211L152.235 251.899V219.179C152.235 219.179 155.416 218.616 160.002 217.809C161.85 224.72 161.825 237.869 166.914 242.529C172.932 248.058 206.007 246.285 207.829 234.31C212.661 242.896 216.746 250.774 216.746 250.774Z" fill="#EFA097"/>
                    <path d="M177.311 230.187L186.093 249.722" stroke="white" stroke-width="1.83479" stroke-miterlimit="10" stroke-linecap="round" stroke-linejoin="round"/>
                    <path d="M190.527 227.416L198.641 246.256" stroke="white" stroke-width="1.83479" stroke-miterlimit="10" stroke-linecap="round" stroke-linejoin="round"/>
                    <path d="M136.664 177.456C127.49 204.047 110.39 248.09 96.0538 253.71C94.4759 254.327 92.9102 254.677 91.3445 254.774C91.3445 254.774 91.3567 254.786 91.3445 254.786C86.8431 255.112 82.4763 253.42 78.5622 250.242C71.9936 244.899 66.7217 235.375 64.2997 224.159C63.7492 221.669 63.3579 219.094 63.1132 216.459C62.3548 208.337 63.0887 199.707 65.8164 191.356C76.605 158.311 92.3208 96.1398 107.334 94.8824C130.371 92.9532 134.144 111.983 138.792 130.669C138.829 130.802 138.853 130.947 138.89 131.092C139.795 134.742 140.431 138.428 140.786 142.127C142.021 154.008 140.59 166.058 136.664 177.456Z" fill="#EE9087"/>
                    <path d="M136.664 177.456C127.49 204.046 110.39 248.09 96.054 253.71C89.9257 256.103 83.8343 254.52 78.5623 250.241C78.2687 242.288 81.5347 233.61 89.0451 228.304C112.518 211.721 134.854 170.579 140.786 142.127C142.022 154.008 140.59 166.058 136.664 177.456Z" fill="#F08175"/>
                    <path d="M157.617 253.049C157.617 253.049 112.677 256.608 93.3505 255.434C92.5921 255.385 91.846 255.324 91.1243 255.226C84.042 254.431 78.7089 251.899 74.9903 248.168C70.7948 243.96 68.6298 238.236 68.3117 231.68C68.1894 229.563 68.2872 227.362 68.5564 225.099C68.6787 224.096 68.8499 223.154 69.0579 222.261C70.0486 218.322 71.9936 215.387 74.6479 213.258C81.0941 208.035 91.6747 207.46 102.476 208.329C118.72 209.613 157.262 214.237 157.262 214.237C157.262 214.237 157.36 221.282 157.446 229.392C157.58 240.107 157.715 252.67 157.617 253.049Z" fill="#EE9087"/>
                    <path d="M68.311 231.682C68.6347 238.235 70.7922 243.965 74.9896 248.164C79.0877 252.284 85.1421 254.935 93.3488 255.436C112.674 256.608 157.623 253.048 157.623 253.048C157.71 252.664 157.575 240.11 157.45 229.389C138.633 233.406 90.3676 242.137 68.311 231.682Z" fill="#F08175"/>
                    <path d="M135.637 250.808C137.45 250.608 138.756 248.976 138.556 247.164C138.356 245.351 136.724 244.044 134.912 244.245C133.099 244.445 131.792 246.077 131.993 247.889C132.193 249.701 133.825 251.008 135.637 250.808Z" fill="white"/>
                    <path d="M117.655 250.668C119.468 250.467 120.774 248.836 120.574 247.023C120.374 245.211 118.742 243.904 116.93 244.104C115.117 244.304 113.81 245.936 114.011 247.749C114.211 249.561 115.843 250.868 117.655 250.668Z" fill="white"/>
                    <path d="M257.473 268.589C257.473 270.51 256.691 272.247 255.431 273.507C254.171 274.766 252.434 275.549 250.513 275.549H162.15C158.297 275.549 155.178 272.43 155.178 268.589C155.178 266.669 155.961 264.92 157.22 263.66C158.48 262.412 160.23 261.629 162.15 261.629H250.513C254.354 261.629 257.473 264.736 257.473 268.589Z" fill="#8CC0B2"/>
                    <path d="M257.473 268.589C257.473 270.51 256.691 272.247 255.431 273.507C254.171 274.767 252.434 275.549 250.513 275.549H207.64C215.322 270.754 222.258 265.556 229.144 261.629H250.513C254.354 261.629 257.473 264.736 257.473 268.589Z" fill="#6A9D8F"/>
                    <path d="M178.587 271.067H169.909C168.539 271.067 167.429 269.957 167.429 268.587C167.429 267.218 168.539 266.108 169.909 266.108H178.587C179.957 266.108 181.067 267.218 181.067 268.587C181.067 269.957 179.957 271.067 178.587 271.067Z" fill="white"/>
                    <path d="M197.955 271.067H189.276C187.907 271.067 186.797 269.957 186.797 268.587C186.797 267.218 187.907 266.108 189.276 266.108H197.955C199.324 266.108 200.434 267.218 200.434 268.587C200.434 269.957 199.324 271.067 197.955 271.067Z" fill="white"/>
                    <path d="M342.943 275.55H249.934C244.678 275.55 240.967 270.401 242.629 265.415L268.666 187.305C270.335 182.296 275.023 178.917 280.304 178.917H373.313C378.568 178.917 382.279 184.066 380.617 189.052L354.581 267.161C352.911 272.171 348.223 275.55 342.943 275.55Z" fill="#6A9D8F"/>
                    <path d="M388.159 189.057L385.75 196.287L362.13 267.158C360.454 272.174 355.769 275.55 350.485 275.55H257.473C252.226 275.55 248.507 270.4 250.171 265.409L255.259 250.168L276.213 187.308C277.876 182.293 282.561 178.917 287.845 178.917H380.857C386.117 178.917 389.823 184.067 388.159 189.057Z" fill="#8CC0B2"/>
                    <path d="M385.75 196.287L362.13 267.159C360.454 272.174 355.769 275.55 350.485 275.55H257.473C252.226 275.55 248.507 270.4 250.171 265.409L255.259 250.168C267.858 242.89 285.729 237.105 313.019 232.224C349.58 225.692 373.347 208.567 385.75 196.287Z" fill="#6A9D8E"/>
                    </g>
                    <defs>
                    <clipPath id="clip0_394_216">
                    <rect width="430.679" height="275.079" fill="white" transform="translate(0.571411 0.776794)"/>
                    </clipPath>
                    </defs>
</svg>
                    